<svg xmlns="http://www.w3.org/2000/svg" xmlns:xlink="http://www.w3.org/1999/xlink" width="24" height="24" viewBox="0 0 24 24">
  <defs>
    <clipPath id="clip-path">
      <rect id="Rectangle_1438" data-name="Rectangle 1438" width="24" height="24" transform="translate(1426 52)" fill="#aeaeae"/>
    </clipPath>
    <clipPath id="clip-path-2">
      <rect id="Rectangle_1437" data-name="Rectangle 1437" width="24" height="18.592" fill="#aeaeae"/>
    </clipPath>
  </defs>
  <g id="Ico_Discord" transform="translate(-1426 -52)" clip-path="url(#clip-path)">
    <g id="_2d20a45d79110dc5bf947137e9d99b66" data-name="2d20a45d79110dc5bf947137e9d99b66" transform="translate(1426 54.704)" clip-path="url(#clip-path-2)">
      <path id="Path_1597" data-name="Path 1597" d="M20.317,1.69A19.791,19.791,0,0,0,15.432.175a.074.074,0,0,0-.079.037,13.786,13.786,0,0,0-.608,1.249,18.271,18.271,0,0,0-5.487,0A12.644,12.644,0,0,0,8.641.212.077.077,0,0,0,8.562.175,19.736,19.736,0,0,0,3.677,1.69a.07.07,0,0,0-.032.028A20.255,20.255,0,0,0,.1,15.378a.082.082,0,0,0,.031.056,19.9,19.9,0,0,0,5.993,3.029.078.078,0,0,0,.084-.028,14.224,14.224,0,0,0,1.226-1.994.076.076,0,0,0-.042-.106,13.106,13.106,0,0,1-1.872-.892.077.077,0,0,1-.008-.128c.126-.094.252-.192.372-.291a.074.074,0,0,1,.078-.01,14.193,14.193,0,0,0,12.061,0,.074.074,0,0,1,.079.01c.12.1.246.2.373.292a.077.077,0,0,1-.007.128,12.3,12.3,0,0,1-1.873.891.077.077,0,0,0-.041.107,15.971,15.971,0,0,0,1.225,1.993.076.076,0,0,0,.084.029,19.836,19.836,0,0,0,6-3.029.077.077,0,0,0,.031-.055,20.122,20.122,0,0,0-3.548-13.66A.061.061,0,0,0,20.317,1.69ZM8.02,12.652a2.307,2.307,0,0,1-2.157-2.419A2.294,2.294,0,0,1,8.02,7.814a2.281,2.281,0,0,1,2.157,2.419A2.294,2.294,0,0,1,8.02,12.652Zm7.975,0a2.307,2.307,0,0,1-2.157-2.419,2.294,2.294,0,0,1,2.157-2.419,2.281,2.281,0,0,1,2.157,2.419A2.288,2.288,0,0,1,15.995,12.652Z" transform="translate(0 -0.035)" fill="#aeaeae"/>
    </g>
  </g>
</svg>
