<svg xmlns="http://www.w3.org/2000/svg" xmlns:xlink="http://www.w3.org/1999/xlink" width="24" height="24" viewBox="0 0 24 24">
  <defs>
    <clipPath id="clip-path">
      <rect id="Rectangle_1439" data-name="Rectangle 1439" width="24" height="24" transform="translate(1466 52)" fill="#aeaeae"/>
    </clipPath>
  </defs>
  <g id="Ico_Twitter" transform="translate(-1466 -52)" clip-path="url(#clip-path)">
    <path id="twitter" d="M21.533,7.675c.015.213.015.426.015.64A13.9,13.9,0,0,1,7.553,22.31,13.9,13.9,0,0,1,0,20.1a10.175,10.175,0,0,0,1.188.061,9.851,9.851,0,0,0,6.107-2.1A4.927,4.927,0,0,1,2.7,14.65a6.2,6.2,0,0,0,.929.076,5.2,5.2,0,0,0,1.294-.167A4.919,4.919,0,0,1,.975,9.731V9.67a4.954,4.954,0,0,0,2.223.624A4.926,4.926,0,0,1,1.675,3.716,13.981,13.981,0,0,0,11.817,8.863,5.553,5.553,0,0,1,11.7,7.736a4.923,4.923,0,0,1,8.513-3.365A9.684,9.684,0,0,0,23.33,3.183a4.906,4.906,0,0,1-2.162,2.711A9.861,9.861,0,0,0,24,5.132a10.573,10.573,0,0,1-2.467,2.543Z" transform="translate(1466 51.436)" fill="#aeaeae"/>
  </g>
</svg>
