<svg xmlns="http://www.w3.org/2000/svg" xmlns:xlink="http://www.w3.org/1999/xlink" width="24" height="24" viewBox="0 0 24 24">
  <defs>
    <clipPath id="clip-path">
      <path id="Union_2" data-name="Union 2" d="M6.51,24C2.914,24,0,20.751,0,16.742v-.129a.185.185,0,0,1,.174-.194H5.83a.208.208,0,0,1,.184.238,2.348,2.348,0,0,0,.2,1.207A1.981,1.981,0,0,0,8,19.1h2.8V16.667H8.032a.2.2,0,0,1-.144-.311c.03-.051.064-.1.1-.164C8.25,15.778,8.624,15.135,9,14.4a14.607,14.607,0,0,0,.7-1.549c.04-.1.072-.193.1-.289.054-.169.11-.327.15-.484.04-.134.072-.273.1-.4a6.937,6.937,0,0,0,.134-1.418c0-.193-.008-.4-.024-.589-.008-.211-.032-.422-.056-.633-.016-.186-.046-.371-.078-.565-.04-.282-.1-.562-.16-.844l-.022-.107c-.048-.193-.088-.378-.144-.571-.158-.607-.34-1.2-.532-1.751-.07-.22-.15-.431-.23-.642-.118-.318-.238-.607-.348-.88-.056-.125-.1-.238-.152-.354-.054-.131-.11-.262-.166-.387-.04-.1-.086-.185-.118-.273l-.342-.7c-.048-.1.032-.209.126-.18l2.14.644h.006s.006,0,.008,0l.282.087.31.1.114.035V1.236A1.174,1.174,0,0,1,11.9,0a1.035,1.035,0,0,1,.778.362A1.316,1.316,0,0,1,13,1.236v2.1l.228.071a.176.176,0,0,1,.052.029c.056.047.136.116.238.2.08.071.166.158.27.246.206.185.452.422.722.7.072.069.142.14.206.211.348.36.738.782,1.11,1.249.1.131.206.264.31.4s.214.282.31.422c.126.187.262.38.38.582.056.1.12.193.174.289.152.255.286.52.414.784.054.122.11.256.158.387A6.087,6.087,0,0,1,17.9,9.978a1.468,1.468,0,0,1,.046.238v.018a2.273,2.273,0,0,1,.04.336,3.987,3.987,0,0,1-.056,1.109,4.375,4.375,0,0,1-.118.464c-.048.151-.1.309-.158.458a6.471,6.471,0,0,1-.43.906c-.054.107-.118.22-.182.327s-.142.22-.206.324c-.088.133-.182.273-.278.4a4.185,4.185,0,0,1-.27.378c-.134.176-.262.342-.4.5-.08.1-.166.211-.254.307s-.174.2-.254.291c-.134.149-.246.264-.34.36l-.22.224a.17.17,0,0,1-.118.049H13V19.1h2.144a1.892,1.892,0,0,0,1.3-.536,16.545,16.545,0,0,0,1.326-1.449.165.165,0,0,1,.082-.056l5.922-1.9A.179.179,0,0,1,24,15.34v1.393a.2.2,0,0,1-.108.182A6.242,6.242,0,0,0,21.6,18.649C20.176,20.851,19.088,24,16.656,24ZM1.576,14a.193.193,0,0,1-.148-.3l.084-.146,5.064-8.8a.166.166,0,0,1,.3.025c.846,2.107,1.576,4.726,1.234,6.358a10.521,10.521,0,0,1-1,2.42c-.058.122-.122.242-.19.358A.168.168,0,0,1,6.784,14Z" transform="translate(1546 53)" fill="#aeaeae"/>
    </clipPath>
  </defs>
  <g id="Ico_OpenSea" transform="translate(-1546 -53)" clip-path="url(#clip-path)">
    <rect id="Rectangle_1440" data-name="Rectangle 1440" width="24" height="26.666" transform="translate(1546 52.111)" fill="#aeaeae"/>
  </g>
</svg>
